inDegrees=no
num_controls=7
num_derivatives=13
num_iterations=153
num_multipliers=7
num_parameters=0
num_slacks=7
num_states=26
objective=5.816784
objective_accelerations=0.847704
objective_balance=0.059632
objective_effort=0.363140
objective_height=4.475594
objective_ligament=0.070714
solver_duration=1707.233177
status=Solve_Succeeded
success=true
DataType=double
version=3
OpenSimVersion=4.4-2022-07-23-0e9fedc
endheader
time	/jointset/ground_pelvis/pelvis_tilt/value	/jointset/ground_pelvis/pelvis_tx/value	/jointset/ground_pelvis/pelvis_ty/value	/jointset/hip_l/hip_flexion_l/value	/jointset/hip_l/hip_adduction_l/value	/jointset/hip_l/hip_rotation_l/value	/jointset/back/lumbar_extension/value	/jointset/patellofemoral_l/patellar_flexion_l/value	/jointset/knee_l/knee_flexion_l/value	/jointset/knee_l/knee_adduction_l/value	/jointset/knee_l/knee_rotation_l/value	/jointset/ankle_l/ankle_angle_l/value	/jointset/subtalar_l/subtalar_angle_l/value	/jointset/ground_pelvis/pelvis_tilt/speed	/jointset/ground_pelvis/pelvis_tx/speed	/jointset/ground_pelvis/pelvis_ty/speed	/jointset/hip_l/hip_flexion_l/speed	/jointset/hip_l/hip_adduction_l/speed	/jointset/hip_l/hip_rotation_l/speed	/jointset/back/lumbar_extension/speed	/jointset/patellofemoral_l/patellar_flexion_l/speed	/jointset/knee_l/knee_flexion_l/speed	/jointset/knee_l/knee_adduction_l/speed	/jointset/knee_l/knee_rotation_l/speed	/jointset/ankle_l/ankle_angle_l/speed	/jointset/subtalar_l/subtalar_angle_l/speed	/forceset/tau_hip_flexion_l	/forceset/tau_hip_adduction_l	/forceset/tau_hip_rotation_l	/forceset/tau_knee_flexion_l	/forceset/tau_ankle_angle_l	/forceset/tau_subtalar_angle_l	/forceset/tau_lumbar_extension	lambda_cid13_p0	lambda_cid13_p1	lambda_cid13_p2	lambda_cid13_p3	lambda_cid13_p4	lambda_cid13_p5	lambda_cid14_p0	/jointset/ground_pelvis/pelvis_tilt/accel	/jointset/ground_pelvis/pelvis_tx/accel	/jointset/ground_pelvis/pelvis_ty/accel	/jointset/hip_l/hip_flexion_l/accel	/jointset/hip_l/hip_adduction_l/accel	/jointset/hip_l/hip_rotation_l/accel	/jointset/back/lumbar_extension/accel	/jointset/patellofemoral_l/patellar_flexion_l/accel	/jointset/knee_l/knee_flexion_l/accel	/jointset/knee_l/knee_adduction_l/accel	/jointset/knee_l/knee_rotation_l/accel	/jointset/ankle_l/ankle_angle_l/accel	/jointset/subtalar_l/subtalar_angle_l/accel	gamma_cid13_p0	gamma_cid13_p1	gamma_cid13_p2	gamma_cid13_p3	gamma_cid13_p4	gamma_cid13_p5	gamma_cid14_p0
1.5	-0.4914653366641296	-0.08689348727676768	0.7366152667418432	1.30741762220171	-0.4332888168231606	-0.2108667081550879	-0.2355407147878003	0.7698006146227834	0.7698006146226992	-0.1482589330737447	-0.1442439387007595	0.009580296051559354	-0.07976176971455444	0.9961765673485535	0.4090560733658372	0.6258173935580692	-2.969810463031541	0.2077436816125162	-0.6935352213266445	0.2824167381755187	-1.91488048103523	-1.914880481035467	-0.08863071958471286	0.1475256660340001	-0.08100646771967446	0.1932945576852358	-0.232251688436746	0.01455061539340844	-0.003330078261119353	-0.1767802737213734	0.09186354915677514	0.05951430692478831	0.2068955334471444	-3.146051585116517	-27.17727323080829	6.145507035980028	-12.64272321247317	-518.5457866073374	-62.73665912107527	-26.59285467770062	1.033812114726497	0.9909371424916777	-0.5286318193458778	-1.776319474878321	0.6985902024126157	-0.1089691546064725	1.746011193730819	-1.276642467236856	-1.276642467236765	0.1410652156278318	0.292202644701321	-0.3296042679431279	0.5906114949239377	2.347423046915624e-07	9.79719089173537e-07	-1.016138157475115e-06	2.037118066487715e-07	5.285329443274058e-07	-6.463522156538642e-07	3.461398963605106e-07
1.51	-0.4814519711336765	-0.08275373746511723	0.7428457593705036	1.277632558566815	-0.4311781487006701	-0.2178071704367091	-0.2326308841384056	0.7505903730577763	0.7505903730577199	-0.1491408978560344	-0.1427559435364944	0.008753694678947632	-0.07780117120860774	1.006344560884067	0.4188431073956513	0.6201455070447748	-2.986791532389325	0.2143678697031312	-0.6944680592587691	0.2995331605414909	-1.926900375138004	-1.926900375137974	-0.0877530773996783	0.1500574386126487	-0.08427790338564425	0.1988172278926537	-0.2242031710415495	0.01416869919596481	-0.002986846220374639	-0.1744291682532476	0.08958244761910744	0.05808280973552245	0.2006046694657545	-3.566493966451117	-26.52030408813733	6.084568781291309	-12.13275778405043	-513.428777296216	-62.92023428582407	-27.44461443208308	0.985510571102947	0.9650135030838324	-0.6066962541885395	-1.597367657184132	0.640935792894835	-0.07175523714845879	1.692023083741457	-1.124613947635083	-1.124613947594829	0.06267211338634603	0.231014830966267	-0.3205173441655889	0.531842059238868	2.340699337308775e-07	1.061025686286197e-06	-9.670678779223575e-07	2.151390258684789e-07	5.578235032064289e-07	-6.124981038286196e-07	3.473347730575082e-07
1.52	-0.4713414821482408	-0.07851763191919713	0.7490154872966573	1.247690010840151	-0.4290019181611714	-0.224754223922578	-0.2295503762002093	0.7312679423385741	0.7312679423385485	-0.150013774537786	-0.1412431605931377	0.007895458124027904	-0.07578559654546925	1.015601258345149	0.4283272202197665	0.6136644530567756	-3.001307281385341	0.2208561650141013	-0.6948534621762139	0.3165521959359048	-1.93731831187427	-1.937318311873971	-0.0868130994768401	0.1524832218520826	-0.08733350418128127	0.2042897891235979	-0.2161546536463577	0.01378678299852179	-0.002643614179637633	-0.1720780627851214	0.08730134608144038	0.05665131254625767	0.1943138054843596	-3.992803945893801	-25.86482745359843	6.026747445867212	-11.63191887882522	-508.3941239010528	-63.14192808150339	-28.2979895025794	0.8515528998402698	0.9303529013519013	-0.6904653142867949	-1.283255402524793	0.6714116464836076	0.0005178483294856796	1.726533799419152	-0.9562509939348598	-0.956250993934853	0.1535323631885632	0.2710047768583725	-0.286437293876576	0.5805896996292198	2.317312374333474e-07	1.142105164054501e-06	-9.116494356601492e-07	2.259699813225868e-07	5.863682887775172e-07	-5.764725757698915e-07	3.468533987575657e-07
1.53	-0.4611430461891687	-0.07418830741439797	0.7551164420949112	1.217614583941776	-0.4267615650435941	-0.2317027962267917	-0.2263003969123814	0.7118492961285877	0.7118492961286079	-0.1508769090224899	-0.1397069201537066	0.007007704259895589	-0.07371564936118848	1.023921034140724	0.4374755844249628	0.6063968333300639	-3.013350653519251	0.2271851287023291	-0.6947751632151756	0.3334116276804382	-1.946134003673384	-1.946134003673339	-0.0858080991956945	0.1547437618005839	-0.09017933215293998	0.2096852252640306	-0.2080582336257749	0.01313332908074104	-0.002320405468290816	-0.1698326668419694	0.0850575110346023	0.05512187303440193	0.1879241737073288	-4.418062043944137	-25.16793835709873	5.963396565904238	-11.04841072488055	-503.4502521780349	-63.30393074057016	-29.1537589739327	0.7974596355913511	0.8978120581618831	-0.7642354958446864	-1.10074707342746	0.6091093332180467	0.02467323186786311	1.660842769582329	-0.8027579814129432	-0.8027579814511345	0.07505464779523453	0.2001696275095209	-0.2779478771628667	0.516751119163067	2.276220704654193e-07	1.222943327519427e-06	-8.494860705191489e-07	2.361674065257452e-07	6.14120690208925e-07	-5.381399179630874e-07	3.445910077733744e-07
